# xmcd
#
# Track frame offsets:
#	150
#	16271
#	34703
#	52374
#	73100
#	91333
#	108296
#	124753
#	137858
#	149727
#	165366
#	180769
#	197079
#
# Disc length: 2868 seconds
#
# Revision: 2
# Processed by: cddbd v1.5.2PL0 Copyright (c) Steve Scherf et al.
# Submitted via: EZCDAudioConverter 4.0.5.1
#
DISCID=b60b320d
DTITLE=Sam Gleaves - Ain't We Brothers
DYEAR=2015
DGENRE=Country
TTITLE0=Working Shoes
TTITLE1=Just Like Jordan (with Laurie Lewis)
TTITLE2=Ain't We Brothers (with Tim O'Brien)
TTITLE3=Angel in the Ashes (with Janis Ian)
TTITLE4=Come Into Your Own
TTITLE5=The Golden Rule (with Cathy Fink)
TTITLE6=Two Virginia Boys (with Donovan Cain)
TTITLE7=Creek's Froze Up - Callahan (with Cathy Fink)
TTITLE8=Johnny
TTITLE9=My Singing Bird
TTITLE10=My Dixie Darlin' (with Tyler Hughes)
TTITLE11=Let Myself Believe (with Marcy Marxer)
TTITLE12=If I Could Write a Song
EXTD=
EXTT0=
EXTT1=
EXTT2=
EXTT3=
EXTT4=
EXTT5=
EXTT6=
EXTT7=
EXTT8=
EXTT9=
EXTT10=
EXTT11=
EXTT12=
PLAYORDER=
